<svg width="40" height="40" viewBox="0 0 40 40" fill="none" xmlns="http://www.w3.org/2000/svg">
<g id="icon web">
<g id="Group 780">
<g id="Group 779">
<path id="Rectangle 988 (Stroke)" fill-rule="evenodd" clip-rule="evenodd" d="M20.1299 22.2489L19.8891 19.9629L17.6243 19.9196C17.2974 20.5701 16.7782 21.6688 16.4439 22.6875C16.2726 23.2092 16.1686 23.6548 16.1447 23.9828C16.141 24.0336 16.1395 24.0768 16.1394 24.113C16.1753 24.1098 16.2178 24.1045 16.2678 24.0963C16.5881 24.0437 17.0167 23.9 17.5141 23.6817C18.4854 23.2556 19.5192 22.6357 20.1299 22.2489ZM20.7866 18.968L17.6288 18.9077C17.2596 18.9006 16.9181 19.0993 16.7499 19.433C16.0851 20.7526 14.5255 24.1072 15.4057 24.9259C16.2858 25.7443 19.4437 23.8781 20.6824 23.0916C20.996 22.8925 21.1615 22.5291 21.1222 22.1557L20.7866 18.968Z" fill="#F5F8FA"/>
<g id="Group 778">
<g id="Group 777">
<path id="Ellipse 539 (Stroke)" fill-rule="evenodd" clip-rule="evenodd" d="M32.2311 6.2645C31.9605 6.01283 31.5403 6.0315 31.2925 6.30619C31.0447 6.58088 31.0632 7.00758 31.3338 7.25925C31.6044 7.51092 32.0246 7.49226 32.2724 7.21756C32.5202 6.94287 32.5017 6.51617 32.2311 6.2645ZM32.9041 5.51844C32.2276 4.88927 31.177 4.93593 30.5575 5.62266C29.9381 6.30939 29.9843 7.37614 30.6608 8.00531C31.3373 8.63449 32.3879 8.58783 33.0074 7.90109C33.6268 7.21436 33.5806 6.14761 32.9041 5.51844Z" fill="#F5F8FA"/>
<path id="Rectangle 986" d="M20.9298 22.2888C20.5581 22.7009 19.9278 22.7289 19.5219 22.3514L17.562 20.5286C17.1561 20.1511 17.1284 19.5111 17.5001 19.099L28.8746 6.48925C29.2463 6.07721 29.8766 6.04922 30.2825 6.42672L32.2424 8.24947C32.6483 8.62697 32.676 9.26702 32.3044 9.67906L20.9298 22.2888Z" fill="#343636"/>
<path id="Rectangle 986 (Stroke)" fill-rule="evenodd" clip-rule="evenodd" d="M18.235 19.7826L20.1949 21.6053L31.5694 8.99553L29.6095 7.17278L18.235 19.7826ZM19.5219 22.3514C19.9278 22.7289 20.5581 22.7009 20.9298 22.2888L32.3044 9.67906C32.676 9.26702 32.6483 8.62697 32.2424 8.24947L30.2825 6.42672C29.8766 6.04922 29.2463 6.07721 28.8746 6.48925L17.5001 19.099C17.1284 19.5111 17.1561 20.1511 17.562 20.5286L19.5219 22.3514Z" fill="#F5F8FA"/>
<path id="Rectangle 987" d="M22.4018 18.1599C22.154 18.4345 21.7338 18.4532 21.4632 18.2015C21.1926 17.9499 21.1741 17.5232 21.4218 17.2485L23.2165 15.259C23.4642 14.9843 23.8845 14.9656 24.1551 15.2173C24.4257 15.469 24.4442 15.8957 24.1964 16.1704L22.4018 18.1599Z" fill="#F5F8FA"/>
</g>
</g>
<path id="Rectangle 989" d="M15.4265 25.3924C15.3026 25.5298 15.0925 25.5391 14.9572 25.4133C14.8219 25.2874 14.8126 25.0741 14.9365 24.9367L15.3852 24.4394C15.5091 24.302 15.7192 24.2927 15.8545 24.4185C15.9898 24.5444 15.999 24.7577 15.8751 24.8951L15.4265 25.3924Z" fill="#F5F8FA"/>
</g>
<path id="Subtract" fill-rule="evenodd" clip-rule="evenodd" d="M4.04407 8.11573L4.2843 34.9793L25.2103 34.7921L25.0698 19.0814L26.0566 17.9875L26.2068 34.7832C26.2118 35.342 25.7697 35.799 25.2194 35.8039L4.29335 35.9911C3.74301 35.996 3.29282 35.547 3.28783 34.9882L3.04759 8.12464C3.04259 7.56584 3.48468 7.10885 4.03502 7.10393L24.961 6.91679C25.5114 6.91187 25.9616 7.36088 25.9666 7.91968L25.9686 8.14662L24.9818 9.24055L24.9701 7.92859L4.04407 8.11573ZM23.3324 10.5264L23.3372 11.0638L22.3504 12.1577L22.3359 10.5353L6.72444 10.6749L6.87221 27.1984L22.4837 27.0588L22.4384 21.9986L23.4252 20.9046L23.4802 27.0499L23.4892 28.0617L22.4927 28.0706L6.88125 28.2102L5.88478 28.2191L5.87573 27.2073L5.72796 10.6838L5.71891 9.67205L6.71539 9.66314L22.3269 9.52353L23.3233 9.51461L23.3324 10.5264ZM14.536 29.8282C15.4532 29.82 16.2035 30.5683 16.2119 31.4997C16.2202 32.431 15.4834 33.1927 14.5662 33.2009C13.6489 33.2091 12.8986 32.4607 12.8903 31.5294C12.8819 30.598 13.6188 29.8364 14.536 29.8282ZM14.5269 28.8164C15.9945 28.8033 17.195 30.0006 17.2083 31.4908C17.2217 32.9809 16.0428 34.1995 14.5752 34.2127C13.1076 34.2258 11.9071 33.0284 11.8938 31.5383C11.8805 30.0482 13.0594 28.8295 14.5269 28.8164Z" fill="#F5F8FA"/>
</g>
</g>
</svg>
